<?xml version="1.0" encoding="UTF-8" standalone="no"?>
<!DOCTYPE svg PUBLIC "-//W3C//DTD SVG 1.1//EN" "http://www.w3.org/Graphics/SVG/1.1/DTD/svg11.dtd">
<svg width="100%" height="100%" viewBox="0 0 350 350" version="1.1" xmlns="http://www.w3.org/2000/svg" xmlns:xlink="http://www.w3.org/1999/xlink" xml:space="preserve" xmlns:serif="http://www.serif.com/" style="fill-rule:evenodd;clip-rule:evenodd;stroke-linejoin:round;stroke-miterlimit:2;">
    <g transform="matrix(1,0,0,1,-2109,-250)">
        <g id="symbol_normal_350x350" transform="matrix(0.866271,0,0,0.866271,282.034,250)">
            <rect x="2109" y="0" width="404.031" height="404.031" style="fill:none;"/>
            <clipPath id="_clip1">
                <rect x="2109" y="0" width="404.031" height="404.031"/>
            </clipPath>
            <g clip-path="url(#_clip1)">
                <g transform="matrix(7.34601,0,0,7.34601,-1578.7,-830.099)">
                    <path d="M527.562,113.644C528.121,113.226 528.801,113 529.5,113C530.199,113 530.879,113.226 531.438,113.644L538.452,118.888L547.119,120.14C547.811,120.24 548.451,120.56 548.945,121.055C549.44,121.549 549.76,122.189 549.86,122.881L551.112,131.548L556.356,138.562C556.774,139.121 557,139.801 557,140.5C557,141.199 556.774,141.879 556.356,142.438L551.112,149.452L549.86,158.119C549.76,158.811 549.44,159.451 548.945,159.945C548.451,160.44 547.811,160.76 547.119,160.86L538.452,162.112L531.438,167.356C530.879,167.774 530.199,168 529.5,168C528.801,168 528.121,167.774 527.562,167.356L520.548,162.112L511.881,160.86C511.189,160.76 510.549,160.44 510.055,159.945C509.56,159.451 509.24,158.811 509.14,158.119L507.888,149.452L502.644,142.438C502.226,141.879 502,141.199 502,140.5C502,139.801 502.226,139.121 502.644,138.562L507.888,131.548L509.14,122.881C509.24,122.189 509.56,121.549 510.055,121.055C510.549,120.56 511.189,120.24 511.881,120.14L520.548,118.888L527.562,113.644ZM526.531,143.565C524.611,147.901 525.339,153.24 528.63,157.243C528.857,157.507 529.183,157.665 529.531,157.678C529.879,157.691 530.216,157.558 530.462,157.312L538.387,149.387C538.387,149.387 544.052,143.721 546.3,141.45C546.543,141.208 546.673,140.875 546.66,140.532C546.647,140.189 546.492,139.867 546.232,139.643C542.24,136.339 536.901,135.611 532.565,137.531C534.485,133.195 533.757,127.857 530.466,123.853C530.24,123.589 529.913,123.432 529.565,123.419C529.217,123.406 528.88,123.538 528.634,123.784L520.709,131.709C520.709,131.709 515.044,137.375 512.796,139.646C512.554,139.889 512.423,140.221 512.436,140.564C512.449,140.907 512.604,141.229 512.864,141.453C516.857,144.757 522.195,145.485 526.531,143.565Z" style="fill:rgb(255,75,11);"/>
                </g>
            </g>
        </g>
    </g>
</svg>
